PathFileType	4	(X/Y/Z)	s05c0402.trc
DataRate	CameraRate	NumFrames	NumMarkers	Units	OrigDataRate	OrigDataStartFrame	OrigNumFrames
200	200	4	50	mm	200	500	2000
Frame#	Time	racr			lacr			c7			jug			rlel			rdr			llel			ldr			s2			lic			ric			lasi			rasi			rpsi			lpsi			rgt			lgt			rth1			rth2			rth3			rth4			rlfc			rmfc			rsh1			rsh2			rsh3			rsh4			rlmal			rmmal			rcal			rtoe			rmt5			lth1			lth2			lth4			lth3			llfc			lmfc			lsh1			lsh2			lsh3			lsh4			llmal			lmmal			lcal			ltoe			lmt5			SBIKE			LBIKE			RBIKE			
		X1	Y1	Z1	X2	Y2	Z2	X3	Y3	Z3	X4	Y4	Z4	X5	Y5	Z5	X6	Y6	Z6	X7	Y7	Z7	X8	Y8	Z8	X9	Y9	Z9	X10	Y10	Z10	X11	Y11	Z11	X12	Y12	Z12	X13	Y13	Z13	X14	Y14	Z14	X15	Y15	Z15	X16	Y16	Z16	X17	Y17	Z17	X18	Y18	Z18	X19	Y19	Z19	X20	Y20	Z20	X21	Y21	Z21	X22	Y22	Z22	X23	Y23	Z23	X24	Y24	Z24	X25	Y25	Z25	X26	Y26	Z26	X27	Y27	Z27	X28	Y28	Z28	X29	Y29	Z29	X30	Y30	Z30	X31	Y31	Z31	X32	Y32	Z32	X33	Y33	Z33	X34	Y34	Z34	X35	Y35	Z35	X36	Y36	Z36	X37	Y37	Z37	X38	Y38	Z38	X39	Y39	Z39	X40	Y40	Z40	X41	Y41	Z41	X42	Y42	Z42	X43	Y43	Z43	X44	Y44	Z44	X45	Y45	Z45	X46	Y46	Z46	X47	Y47	Z47	X48	Y48	Z48	X49	Y49	Z49	X50	Y50	Z50	
500	2.5000	729.848767	1345.494809	-64.076137	735.209564	1358.238953	-361.473882	712.222061	1448.168094	-211.141861	671.564601	1286.146704	-214.634570	545.683716	1127.702537	39.570746	673.468080	967.504986	-88.095531	563.209234	1187.929191	-563.460083	675.918222	966.489619	-498.679998	149.724765	1280.011883	-289.269617	324.392113	1247.888778	-404.617734	264.860043	1301.952718	-133.669572	345.599180	1190.506718	-354.340937	306.382402	1233.122064	-146.123126	183.076470	1326.575692	-253.135206	204.243017	1313.192071	-334.175996	216.633720	1187.042593	-93.990536	223.272426	1152.416359	-425.434320	305.186200	1104.960998	-77.060341	383.032053	1063.194558	-71.396076	428.189405	987.200860	-70.949974	407.376443	1088.109117	-85.220610	524.200649	868.614707	-96.158574	518.192536	870.735874	-208.460328	431.545435	808.786229	-78.553404	382.665131	736.094754	-94.349351	307.653248	696.038812	-100.658435	404.967432	716.787724	-119.258995	213.069649	603.679900	-116.367751	238.197128	626.672800	-193.107008	134.202792	601.964408	-163.253272	393.418040	463.854837	-157.104293	292.426325	483.273940	-90.204790	251.874447	1016.232277	-435.949817	283.397336	938.037647	-423.781058	315.540596	941.649630	-404.985350	270.373884	847.960688	-423.668078	262.839153	702.859990	-397.996817	228.853668	693.907483	-295.465931	196.083634	597.324140	-439.831035	182.769206	511.253645	-431.109579	128.624591	441.425379	-439.815443	207.843917	501.304805	-403.607322	87.778820	325.413435	-439.894544	126.188109	344.779827	-368.669067	17.514887	324.678682	-401.076949	237.347468	125.668328	-397.033453	139.540873	172.144036	-461.463816	-264.027748	894.641302	-283.714086	-53.511534	79.922342	-474.635668	-53.513380	79.330019	-77.113864	
501	2.5050	727.976292	1340.851989	-64.691923	735.107544	1353.345586	-359.190449	711.867339	1444.523018	-209.229961	670.232760	1282.430671	-213.028586	543.304273	1125.000650	41.019230	672.759450	967.654270	-87.739281	562.394105	1187.085573	-564.026398	675.601247	966.498350	-498.728621	148.936467	1280.012998	-290.021133	323.659415	1248.461509	-406.193738	264.032870	1301.808271	-134.239649	344.817923	1190.271102	-354.792315	305.586910	1232.625815	-146.282277	182.404128	1326.640956	-253.529775	203.568925	1313.383135	-334.516313	215.175343	1186.631311	-94.569587	223.288803	1151.989172	-426.143314	303.323072	1103.598607	-77.468108	381.007098	1061.222761	-71.865005	425.344019	984.827165	-71.612951	405.463873	1085.978230	-85.359711	520.909815	865.511018	-97.042663	514.605556	867.936242	-209.121119	428.661995	804.379290	-79.508048	380.738041	731.050258	-95.561813	306.263258	690.070415	-101.974524	403.355966	712.276085	-120.636135	212.951635	597.613375	-117.007956	237.634198	620.667247	-194.495311	134.277701	592.350804	-165.391012	398.392213	464.665688	-156.718184	296.359216	480.171291	-90.343108	254.252404	1015.265081	-435.209380	287.046724	937.713200	-421.834098	319.025627	942.026055	-402.754471	275.768907	847.587800	-421.245236	271.407279	702.295384	-395.036721	235.522279	694.358829	-293.359653	201.317861	597.959280	-437.977618	185.127672	512.503487	-429.303657	128.860554	444.368408	-438.558608	209.585391	501.708489	-401.568969	84.059597	329.396218	-438.755926	122.332044	347.766279	-367.397899	13.767783	329.394029	-399.560217	231.217558	127.591605	-397.463812	133.645937	175.493867	-461.003629	-263.990968	894.664935	-283.796228	-53.514118	79.908317	-474.676162	-53.519598	79.334868	-77.122090	
502	2.5100	726.671241	1336.376422	-63.302089	734.867183	1348.535865	-356.943972	711.433087	1440.807673	-207.363527	668.821772	1278.534804	-211.571170	540.687307	1122.089644	42.359091	672.060649	967.891525	-87.264152	561.574988	1186.273076	-564.544358	675.317139	966.517583	-498.840519	148.165709	1279.739693	-290.861137	322.981948	1247.989036	-406.423525	263.008737	1300.996758	-134.434407	344.186567	1189.400649	-355.640533	304.869857	1231.988699	-146.441176	181.745354	1326.432908	-253.992525	202.781200	1313.237351	-334.733988	213.820912	1186.014984	-95.194838	223.427839	1151.162528	-426.885078	301.481461	1101.810154	-77.927669	378.639581	1058.736605	-72.124944	422.441916	981.954730	-72.531873	403.516595	1083.486703	-85.355680	517.496461	862.037802	-97.898991	510.087210	864.435854	-210.540631	425.562199	799.625923	-80.603976	378.760439	725.644215	-96.889592	304.888007	683.573870	-103.477261	401.747748	707.305072	-122.078657	212.842048	590.630834	-118.513417	237.442439	614.106755	-196.192141	134.590665	582.443896	-167.785415	403.642622	464.722021	-155.305550	299.979870	476.625305	-90.298851	256.685077	1014.255358	-434.335785	290.845080	937.488060	-420.048212	322.628630	942.574816	-400.995020	281.239307	847.177199	-418.499244	280.640762	701.865226	-392.121653	242.981560	694.845324	-291.381009	206.484166	598.828758	-435.819069	187.485311	514.000317	-427.543448	129.176954	447.735437	-437.204865	211.555334	502.411559	-399.774332	80.412446	333.389628	-437.340482	118.699320	350.885696	-366.087569	10.676146	334.434437	-397.455487	225.236648	129.536456	-398.219424	127.612258	178.990748	-460.446834	-263.975728	894.649833	-283.871606	-53.526707	79.897312	-474.694780	-53.535785	79.322570	-77.154422	
503	2.5150	725.351240	1331.741935	-61.930461	734.537744	1343.743187	-354.730557	710.916178	1436.926349	-205.503980	667.293844	1274.534733	-210.237322	537.968626	1119.279870	43.711556	671.406889	968.135970	-86.614009	560.708193	1185.519409	-565.150951	675.039180	966.555019	-499.044138	147.475564	1279.312931	-291.712142	322.167315	1247.456297	-406.572129	262.168284	1300.102987	-134.803678	343.498549	1188.732362	-356.203783	304.193581	1231.015101	-146.663228	181.106349	1325.945896	-254.438360	202.149369	1312.854710	-335.199318	212.555217	1185.085700	-95.778510	223.578507	1150.064445	-427.623238	299.701043	1099.694767	-78.712345	376.181839	1055.915274	-72.450990	419.441216	978.649130	-73.475137	401.633176	1080.452364	-85.505336	514.173670	858.199399	-98.898230	507.084020	860.830990	-210.907751	422.410961	794.756778	-81.767828	376.933151	720.011200	-98.318641	303.701828	676.629108	-105.261543	400.240065	702.206917	-123.531436	213.087932	583.325520	-120.431026	237.648430	607.064217	-198.191316	135.335883	572.560802	-170.174104	408.466658	464.362323	-154.429489	303.807443	472.937645	-90.531601	259.215256	1013.296177	-433.491172	294.777657	937.229991	-418.543455	326.467984	943.062481	-399.489753	286.854574	846.851652	-416.381271	289.688591	701.618128	-389.405798	251.308699	694.880980	-289.458841	211.402605	600.115105	-433.650966	189.873547	515.824749	-425.849510	129.579516	451.367513	-435.591961	213.724437	503.397402	-398.295214	77.510447	337.918541	-435.755542	115.296977	354.137926	-364.760140	8.159591	339.868124	-394.937644	219.276158	131.547628	-398.956142	121.756503	182.713130	-459.849130	-263.920115	894.631551	-283.859595	-53.535925	79.891113	-474.700585	-53.532882	79.304422	-77.162819	
